<svg width="176" height="88" viewBox="0 0 176 88" fill="none" xmlns="http://www.w3.org/2000/svg">
  <g clip-path="url(#clip0_1_372)">
    <path d="M0.870605 0.423103C10.1868 8.83579 19.7038 16.9674 29.4416 24.8179C28.1165 37.2663 27.1327 49.7548 26.4902 62.2835C39.0188 61.641 51.5074 60.6572 63.9557 59.332C71.8062 69.0698 79.9579 78.6069 88.3505 87.903C96.7632 78.5868 104.895 69.0698 112.745 59.332C125.194 60.6572 137.682 61.641 150.211 62.2835C149.568 49.7548 148.585 37.2663 147.259 24.8179C156.997 16.9674 166.534 8.81571 175.83 0.423103C166.514 -7.98959 156.997 -16.1212 147.259 -23.9717C148.585 -36.4201 149.568 -48.9086 150.211 -61.4373C137.682 -60.7948 125.194 -59.811 112.745 -58.4858C104.915 -68.2437 96.7632 -77.7607 88.3706 -87.0769C79.9579 -77.7607 71.8263 -68.2437 63.9758 -58.5059C51.5274 -59.831 39.0389 -60.8149 26.5102 -61.4574C27.1527 -48.9287 28.1365 -36.4401 29.4617 -23.9918C19.7038 -16.1212 10.1868 -7.98959 0.870605 0.423103ZM72.2078 7.10908C72.1676 7.06892 72.1074 7.04884 72.0672 7.00869C72.1676 7.02876 72.268 7.02877 72.3684 7.04884C72.3082 7.12916 72.2479 7.20947 72.1877 7.28978C72.1877 7.22955 72.1877 7.16931 72.2078 7.10908ZM72.2078 -6.28296C72.2078 -6.34319 72.1877 -6.40343 72.1877 -6.46366C72.2479 -6.38335 72.3082 -6.30304 72.3684 -6.22272C72.268 -6.20264 72.1676 -6.20264 72.0672 -6.18257C72.1074 -6.20264 72.1476 -6.2428 72.2078 -6.28296ZM81.6645 -15.7397C81.7047 -15.7799 81.7248 -15.8401 81.7649 -15.8803C81.7449 -15.7799 81.7449 -15.6795 81.7248 -15.5791C81.6445 -15.6393 81.5642 -15.6995 81.4838 -15.7598C81.5642 -15.7598 81.6043 -15.7598 81.6645 -15.7397ZM95.0566 -15.7397C95.1168 -15.7397 95.177 -15.7598 95.2373 -15.7598C95.157 -15.6995 95.0767 -15.6393 94.9963 -15.5791C94.9763 -15.6795 94.9763 -15.7799 94.9562 -15.8803C94.9963 -15.8401 95.0365 -15.7999 95.0566 -15.7397ZM104.533 -6.28296C104.574 -6.2428 104.634 -6.22272 104.674 -6.18257C104.574 -6.20264 104.473 -6.20264 104.373 -6.22272C104.433 -6.30304 104.493 -6.38335 104.553 -6.46366C104.553 -6.38335 104.533 -6.34319 104.533 -6.28296ZM104.533 7.10908C104.533 7.16931 104.553 7.22955 104.553 7.28978C104.493 7.20947 104.433 7.12916 104.373 7.04884C104.473 7.02877 104.574 7.02876 104.674 7.00869C104.634 7.04884 104.574 7.089 104.533 7.10908ZM95.0566 16.5859C95.0164 16.6261 94.9963 16.6863 94.9562 16.7264C94.9763 16.6261 94.9763 16.5257 94.9963 16.4253C95.0767 16.4855 95.157 16.5457 95.2373 16.606C95.177 16.606 95.1168 16.5859 95.0566 16.5859ZM81.6645 16.5859C81.6043 16.5859 81.5441 16.606 81.4838 16.606C81.5642 16.5457 81.6445 16.4855 81.7248 16.4253C81.7449 16.5257 81.7449 16.6261 81.7649 16.7264C81.7449 16.6863 81.7047 16.6261 81.6645 16.5859ZM80.8012 3.55527C75.5006 2.91277 70.2 2.27027 64.9195 1.6077C64.4175 1.20614 63.8955 0.824661 63.3935 0.423103C63.8955 0.0215378 64.4175 -0.35994 64.9195 -0.761505C70.2201 -1.42408 75.5207 -2.08665 80.8012 -2.70908C77.5084 -6.90538 74.2156 -11.1218 70.9429 -15.3382C70.8626 -15.9806 70.7822 -16.6231 70.7019 -17.2456C71.3444 -17.1653 71.9869 -17.0849 72.6094 -17.0046C76.8257 -13.7319 81.0421 -10.4391 85.2384 -7.14632C85.8809 -12.4469 86.5234 -17.7475 87.186 -23.028C87.5876 -23.53 87.969 -24.052 88.3706 -24.554C88.7722 -24.052 89.1536 -23.53 89.5552 -23.028C90.2178 -17.7274 90.8803 -12.4268 91.5028 -7.14632C95.6991 -10.4391 99.9155 -13.7319 104.132 -17.0046C104.774 -17.0849 105.417 -17.1653 106.039 -17.2456C105.959 -16.6031 105.879 -15.9606 105.798 -15.3382C102.526 -11.1218 99.2328 -6.90538 95.94 -2.70908C101.241 -2.06657 106.541 -1.42408 111.822 -0.761505C112.324 -0.35994 112.846 0.0215378 113.348 0.423103C112.846 0.824661 112.324 1.20614 111.822 1.6077C106.521 2.27027 101.221 2.93285 95.94 3.55527C99.2328 7.75157 102.526 11.968 105.798 16.1843C105.879 16.8268 105.959 17.4693 106.039 18.0918C105.397 18.0114 104.754 17.9311 104.132 17.8508C99.9155 14.5781 95.6991 11.2853 91.5028 7.99251C90.8603 13.2931 90.2178 18.5937 89.5552 23.8742C89.1536 24.3762 88.7722 24.8982 88.3706 25.4002C87.969 24.8982 87.5876 24.3762 87.186 23.8742C86.5234 18.5736 85.8608 13.273 85.2384 7.99251C81.0421 11.2853 76.8257 14.5781 72.6094 17.8508C71.9669 17.9311 71.3244 18.0114 70.7019 18.0918C70.7822 17.4493 70.8626 16.8068 70.9429 16.1843C74.2156 11.968 77.5084 7.75157 80.8012 3.55527ZM51.668 0.423103C55.9044 3.77613 60.161 7.06892 64.4577 10.3216C63.7148 15.6623 63.0321 21.0031 62.4097 26.3639C67.7706 25.7415 73.1113 25.0588 78.4521 24.3159C81.7047 28.6126 84.9975 32.8893 88.3505 37.1056C91.7035 32.8893 94.9963 28.6126 98.249 24.3159C103.59 25.0588 108.93 25.7415 114.291 26.3639C113.669 21.0031 112.986 15.6623 112.243 10.3216C116.54 7.06892 120.817 3.77613 125.033 0.423103C120.817 -2.92993 116.54 -6.22272 112.243 -9.47536C112.986 -14.8161 113.669 -20.1569 114.291 -25.5177C108.93 -24.8953 103.59 -24.2126 98.249 -23.4697C94.9963 -27.7664 91.7035 -32.0431 88.3505 -36.2594C84.9975 -32.023 81.7047 -27.7664 78.4521 -23.4697C73.1113 -24.2126 67.7706 -24.8953 62.4097 -25.5177C63.0321 -20.1569 63.7148 -14.8161 64.4577 -9.47536C60.161 -6.24281 55.8844 -2.92993 51.668 0.423103ZM38.1956 21.2038C29.6826 14.4777 21.3502 7.5508 13.1584 0.423103C21.3502 -6.7046 29.6826 -13.6315 38.1956 -20.3577C36.9307 -31.1395 35.9268 -41.9415 35.1839 -52.7636C46.006 -52.0207 56.808 -51.0168 67.5899 -49.7519C74.316 -58.2649 81.2429 -66.5973 88.3706 -74.7892C95.4983 -66.5973 102.425 -58.2649 109.151 -49.7519C119.933 -51.0168 130.735 -52.0207 141.557 -52.7636C140.814 -41.9415 139.81 -31.1395 138.546 -20.3577C147.059 -13.6315 155.391 -6.7046 163.583 0.423103C155.391 7.5508 147.059 14.4777 138.546 21.2038C139.81 31.9857 140.814 42.7877 141.557 53.6098C130.735 52.8669 119.933 51.863 109.151 50.5981C102.425 59.1111 95.4983 67.4435 88.3706 75.6353C81.2429 67.4435 74.316 59.1111 67.5899 50.5981C56.808 51.863 46.006 52.8669 35.1839 53.6098C35.9268 42.7676 36.9307 31.9657 38.1956 21.2038Z" fill="url(#paint0_linear_1_372)" fill-opacity="0.3" />
    <path d="M26.6509 0.423077C26.671 2.16986 27.2532 3.91665 28.3977 5.32211C28.4981 5.46265 28.6185 5.62328 28.7591 5.76383C28.8996 5.90437 29.0402 6.02483 29.2008 6.12523C32.1523 8.49443 36.5494 8.55467 39.3402 5.76383C40.7457 4.35837 41.4885 2.39072 41.5488 0.423077C41.4885 -1.56465 40.7256 -3.5323 39.3402 -4.91768C36.5494 -7.70853 32.1523 -7.64828 29.2008 -5.27908C29.0603 -5.17869 28.8996 -5.05823 28.7591 -4.91768C28.6185 -4.77714 28.4981 -4.63659 28.3977 -4.47596C27.2733 -3.0705 26.671 -1.32371 26.6509 0.423077ZM44.7211 -43.2265C43.4964 -41.9817 42.6932 -40.3353 42.4924 -38.5283C42.4523 -38.3476 42.4322 -38.1669 42.4523 -37.9661C42.4523 -37.7653 42.4724 -37.5846 42.4924 -37.4039C42.894 -33.6292 45.986 -30.4971 49.9213 -30.477C51.889 -30.477 53.8165 -31.3404 55.2621 -32.6856C56.6274 -34.1312 57.4707 -36.0587 57.4707 -38.0263C57.4707 -41.9616 54.3184 -45.0536 50.5437 -45.4552C50.363 -45.4954 50.1823 -45.5154 49.9815 -45.4954C49.7808 -45.4954 49.6001 -45.4753 49.4194 -45.4552C47.6324 -45.2544 45.9659 -44.4312 44.7211 -43.2265ZM88.3707 -61.2968C86.6239 -61.2767 84.8771 -60.6944 83.4717 -59.55C83.3311 -59.4496 83.1705 -59.3291 83.03 -59.1886C82.8894 -59.048 82.769 -58.9075 82.6686 -58.7468C80.2994 -55.7954 80.2391 -51.3983 83.03 -48.6074C84.4354 -47.202 86.4031 -46.4591 88.3707 -46.3989C90.3584 -46.4591 92.3261 -47.2221 93.7115 -48.6074C96.5023 -51.3983 96.4421 -55.7954 94.0729 -58.7468C93.9725 -58.8874 93.852 -59.048 93.7115 -59.1886C93.5709 -59.3291 93.4304 -59.4496 93.2698 -59.55C91.8442 -60.6743 90.0974 -61.2767 88.3707 -61.2968ZM132 -43.2265C130.755 -44.4513 129.109 -45.2544 127.302 -45.4552C127.121 -45.4954 126.941 -45.5154 126.74 -45.4954C126.539 -45.4954 126.358 -45.4753 126.178 -45.4552C122.403 -45.0536 119.271 -41.9616 119.251 -38.0263C119.251 -36.0587 120.114 -34.1312 121.459 -32.6856C122.905 -31.3203 124.832 -30.477 126.8 -30.477C130.735 -30.477 133.827 -33.6292 134.229 -37.4039C134.269 -37.5846 134.289 -37.7653 134.269 -37.9661C134.269 -38.1669 134.249 -38.3476 134.229 -38.5283C134.028 -40.3152 133.225 -41.9817 132 -43.2265ZM150.07 0.423077C150.05 -1.32371 149.468 -3.0705 148.324 -4.47596C148.223 -4.61651 148.103 -4.77714 147.962 -4.91768C147.822 -5.05823 147.681 -5.17869 147.521 -5.27908C144.569 -7.64828 140.172 -7.70853 137.381 -4.91768C135.976 -3.51222 135.233 -1.54457 135.173 0.423077C135.233 2.4108 135.996 4.37845 137.381 5.76383C140.172 8.55467 144.569 8.49443 147.521 6.12523C147.661 6.02483 147.822 5.90437 147.962 5.76383C148.103 5.62328 148.223 5.48273 148.324 5.32211C149.468 3.89657 150.07 2.14979 150.07 0.423077ZM132 44.0526C133.225 42.8078 134.028 41.1614 134.229 39.3544C134.269 39.1737 134.289 38.9929 134.269 38.7922C134.269 38.5914 134.249 38.4107 134.229 38.23C133.827 34.4553 130.735 31.3231 126.8 31.3031C124.832 31.3031 122.905 32.1664 121.459 33.5117C120.094 34.9573 119.251 36.8848 119.251 38.8524C119.251 42.7877 122.403 45.8797 126.178 46.2813C126.358 46.3214 126.539 46.3415 126.74 46.3214C126.941 46.3214 127.121 46.3013 127.302 46.2813C129.109 46.0805 130.755 45.2774 132 44.0526ZM88.3707 62.1228C90.1175 62.1027 91.8643 61.5205 93.2698 60.376C93.4103 60.2757 93.5709 60.1552 93.7115 60.0146C93.852 59.8741 93.9725 59.7335 94.0729 59.5729C96.4421 56.6214 96.5023 52.2244 93.7115 49.4335C92.306 48.028 90.3384 47.2852 88.3707 47.2249C86.383 47.2852 84.4153 48.0481 83.03 49.4335C80.2391 52.2244 80.2994 56.6214 82.6686 59.5729C82.769 59.7135 82.8894 59.8741 83.03 60.0146C83.1705 60.1552 83.3111 60.2757 83.4717 60.376C84.8771 61.5205 86.6239 62.1228 88.3707 62.1228ZM44.7211 44.0526C45.9659 45.2774 47.6123 46.0805 49.4194 46.2813C49.6001 46.3214 49.7808 46.3415 49.9815 46.3214C50.1823 46.3214 50.363 46.3013 50.5437 46.2813C54.3184 45.8797 57.4506 42.7877 57.4707 38.8524C57.4707 36.8848 56.6073 34.9573 55.2621 33.5117C53.8165 32.1463 51.889 31.3031 49.9213 31.3031C45.986 31.3031 42.894 34.4553 42.4924 38.23C42.4523 38.4107 42.4322 38.5914 42.4523 38.7922C42.4523 38.9929 42.4724 39.1737 42.4924 39.3544C42.6932 41.1614 43.5164 42.8078 44.7211 44.0526ZM37.1316 0.423077C36.8304 2.5915 34.14 4.57922 31.9716 2.57142C31.3291 1.86869 31.0881 1.12581 31.1283 0.423077C31.0881 -0.279655 31.3291 -1.02255 31.9716 -1.72528C34.14 -3.73308 36.8505 -1.74535 37.1316 0.423077ZM52.15 -35.7977C50.4032 -34.4725 47.0903 -34.9745 46.9899 -37.946C47.0301 -38.8897 47.3915 -39.5924 47.9135 -40.0542C48.3753 -40.5762 49.078 -40.9376 50.0217 -40.9778C52.9531 -40.8573 53.4751 -37.5445 52.15 -35.7977ZM88.3707 -50.816C86.2023 -51.1172 84.2146 -53.8077 86.2224 -55.9761C86.9251 -56.6186 87.668 -56.8595 88.3707 -56.8194C89.0735 -56.8595 89.8163 -56.6186 90.5191 -55.9761C92.5269 -53.8077 90.5392 -51.0971 88.3707 -50.816ZM124.591 -35.7977C123.266 -37.5445 123.768 -40.8573 126.74 -40.9577C127.683 -40.9176 128.386 -40.5762 128.848 -40.0341C129.37 -39.5723 129.731 -38.8696 129.772 -37.9259C129.651 -34.9946 126.318 -34.4725 124.591 -35.7977ZM139.59 0.423077C139.891 -1.74535 142.581 -3.73308 144.75 -1.72528C145.392 -1.02255 145.633 -0.279655 145.593 0.423077C145.633 1.12581 145.392 1.86869 144.75 2.57142C142.601 4.57922 139.891 2.5915 139.59 0.423077ZM124.591 36.6438C126.338 35.3187 129.651 35.8206 129.752 38.7922C129.711 39.7358 129.37 40.4386 128.828 40.9004C128.366 41.4224 127.663 41.7838 126.72 41.8239C123.768 41.7035 123.266 38.3705 124.591 36.6438ZM88.3707 51.6421C90.5392 51.9433 92.5269 54.6337 90.5191 56.8022C89.8163 57.4446 89.0735 57.6856 88.3707 57.6454C87.668 57.6856 86.9251 57.4446 86.2224 56.8022C84.2146 54.6538 86.2023 51.9433 88.3707 51.6421ZM52.15 36.6438C53.4751 38.3906 52.9732 41.7035 50.0016 41.8039C49.058 41.7838 48.3552 41.4224 47.8934 40.9004C47.3714 40.4386 47.01 39.7358 46.9698 38.7922C47.0903 35.8206 50.4032 35.3187 52.15 36.6438Z" fill="url(#paint1_linear_1_372)" fill-opacity="0.3" />
  </g>
  <defs>
    <linearGradient id="paint0_linear_1_372" x1="118.604" y1="-67.913" x2="88.3505" y2="87.903" gradientUnits="userSpaceOnUse">
      <stop offset="0.0625" stop-color="white" />
      <stop offset="1" stop-color="white" stop-opacity="0" />
    </linearGradient>
    <linearGradient id="paint1_linear_1_372" x1="88.3607" y1="-61.2968" x2="88.3607" y2="62.1228" gradientUnits="userSpaceOnUse">
      <stop offset="0.0625" stop-color="white" />
      <stop offset="1" stop-color="white" stop-opacity="0" />
    </linearGradient>
    <clipPath id="clip0_1_372">
      <rect width="175" height="175" fill="white" transform="translate(0.870605 -87.0769)" />
    </clipPath>
  </defs>
</svg>