<svg width="267" height="160" viewBox="0 0 267 160" fill="none" xmlns="http://www.w3.org/2000/svg">
  <path d="M0.964355 133.73C15.125 146.518 29.5908 158.878 44.3923 170.81C42.3781 189.732 40.8827 208.714 39.9061 227.758C58.9497 226.781 77.9322 225.286 96.8537 223.272C108.787 238.073 121.177 252.57 133.934 266.7C146.721 252.539 159.081 238.073 171.014 223.272C189.935 225.286 208.918 226.781 227.962 227.758C226.985 208.714 225.49 189.732 223.475 170.81C238.277 158.878 252.773 146.487 266.903 133.73C252.743 120.943 238.277 108.583 223.475 96.6501C225.49 77.7286 226.985 58.7461 227.962 39.7025C208.918 40.6791 189.935 42.1745 171.014 44.1887C159.112 29.3567 146.721 14.8908 133.964 0.730225C121.177 14.8908 108.817 29.3567 96.8843 44.1582C77.9627 42.1439 58.9802 40.6485 39.9366 39.6719C40.9132 58.7155 42.4086 77.6981 44.4228 96.6196C29.5908 108.583 15.125 120.943 0.964355 133.73ZM109.397 143.893C109.336 143.832 109.244 143.801 109.183 143.74C109.336 143.771 109.488 143.771 109.641 143.801C109.549 143.923 109.458 144.046 109.366 144.168C109.366 144.076 109.366 143.984 109.397 143.893ZM109.397 123.537C109.397 123.445 109.366 123.354 109.366 123.262C109.458 123.384 109.549 123.507 109.641 123.629C109.488 123.659 109.336 123.659 109.183 123.69C109.244 123.659 109.305 123.598 109.397 123.537ZM123.771 109.163C123.832 109.102 123.863 109.01 123.924 108.949C123.893 109.102 123.893 109.254 123.863 109.407C123.741 109.315 123.619 109.224 123.496 109.132C123.619 109.132 123.68 109.132 123.771 109.163ZM144.127 109.163C144.219 109.163 144.31 109.132 144.402 109.132C144.28 109.224 144.158 109.315 144.035 109.407C144.005 109.254 144.005 109.102 143.974 108.949C144.035 109.01 144.097 109.071 144.127 109.163ZM158.532 123.537C158.593 123.598 158.684 123.629 158.745 123.69C158.593 123.659 158.44 123.659 158.288 123.629C158.379 123.507 158.471 123.384 158.562 123.262C158.562 123.384 158.532 123.445 158.532 123.537ZM158.532 143.893C158.532 143.984 158.562 144.076 158.562 144.168C158.471 144.046 158.379 143.923 158.288 143.801C158.44 143.771 158.593 143.771 158.745 143.74C158.684 143.801 158.593 143.862 158.532 143.893ZM144.127 158.298C144.066 158.359 144.035 158.45 143.974 158.511C144.005 158.359 144.005 158.206 144.035 158.054C144.158 158.145 144.28 158.237 144.402 158.328C144.31 158.328 144.219 158.298 144.127 158.298ZM123.771 158.298C123.68 158.298 123.588 158.328 123.496 158.328C123.619 158.237 123.741 158.145 123.863 158.054C123.893 158.206 123.893 158.359 123.924 158.511C123.893 158.45 123.832 158.359 123.771 158.298ZM122.459 138.491C114.402 137.515 106.345 136.538 98.3186 135.531C97.5557 134.92 96.7622 134.341 95.9992 133.73C96.7622 133.12 97.5557 132.54 98.3186 131.93C106.376 130.923 114.432 129.915 122.459 128.969C117.454 122.591 112.449 116.182 107.474 109.773C107.352 108.797 107.23 107.82 107.108 106.874C108.085 106.996 109.061 107.118 110.007 107.24C116.416 112.215 122.825 117.22 129.203 122.225C130.18 114.168 131.157 106.111 132.164 98.0845C132.774 97.3215 133.354 96.5281 133.964 95.7651C134.575 96.5281 135.155 97.3215 135.765 98.0845C136.772 106.141 137.779 114.198 138.725 122.225C145.104 117.22 151.513 112.215 157.921 107.24C158.898 107.118 159.875 106.996 160.821 106.874C160.699 107.85 160.577 108.827 160.454 109.773C155.48 116.182 150.475 122.591 145.47 128.969C153.527 129.946 161.584 130.923 169.61 131.93C170.373 132.54 171.167 133.12 171.929 133.73C171.167 134.341 170.373 134.92 169.61 135.531C161.553 136.538 153.496 137.545 145.47 138.491C150.475 144.87 155.48 151.278 160.454 157.687C160.577 158.664 160.699 159.641 160.821 160.587C159.844 160.465 158.868 160.342 157.921 160.22C151.513 155.246 145.104 150.241 138.725 145.236C137.749 153.293 136.772 161.35 135.765 169.376C135.155 170.139 134.575 170.932 133.964 171.695C133.354 170.932 132.774 170.139 132.164 169.376C131.157 161.319 130.15 153.262 129.203 145.236C122.825 150.241 116.416 155.246 110.007 160.22C109.031 160.342 108.054 160.465 107.108 160.587C107.23 159.61 107.352 158.633 107.474 157.687C112.449 151.278 117.454 144.87 122.459 138.491ZM78.1764 133.73C84.6158 138.827 91.0857 143.832 97.6167 148.776C96.4875 156.894 95.4499 165.012 94.5038 173.16C102.652 172.214 110.77 171.177 118.888 170.047C123.832 176.578 128.837 183.079 133.934 189.488C139.03 183.079 144.035 176.578 148.979 170.047C157.097 171.177 165.215 172.214 173.364 173.16C172.418 165.012 171.38 156.894 170.251 148.776C176.782 143.832 183.282 138.827 189.691 133.73C183.282 128.634 176.782 123.629 170.251 118.685C171.38 110.567 172.418 102.449 173.364 94.3002C165.215 95.2463 157.097 96.2839 148.979 97.4131C144.035 90.8821 139.03 84.3817 133.934 77.9728C128.837 84.4122 123.832 90.8821 118.888 97.4131C110.77 96.2839 102.652 95.2463 94.5038 94.3002C95.4499 102.449 96.4875 110.567 97.6167 118.685C91.0857 123.598 84.5853 128.634 78.1764 133.73ZM57.6984 165.317C44.7585 155.093 32.0933 144.564 19.6417 133.73C32.0933 122.896 44.7585 112.367 57.6984 102.143C55.7757 85.755 54.2498 69.336 53.1206 52.8865C69.5701 54.0157 85.9891 55.5416 102.378 57.4643C112.601 44.5244 123.13 31.8592 133.964 19.4076C144.798 31.8592 155.327 44.5244 165.551 57.4643C181.94 55.5416 198.359 54.0157 214.808 52.8865C213.679 69.336 212.153 85.755 210.23 102.143C223.17 112.367 235.835 122.896 248.287 133.73C235.835 144.564 223.17 155.093 210.23 165.317C212.153 181.705 213.679 198.124 214.808 214.574C198.359 213.445 181.94 211.919 165.551 209.996C155.327 222.936 144.798 235.601 133.964 248.053C123.13 235.601 112.601 222.936 102.378 209.996C85.9891 211.919 69.5701 213.445 53.1206 214.574C54.2498 198.094 55.7757 181.675 57.6984 165.317Z" fill="url(#paint0_linear_1_377)" fill-opacity="0.3" />
  <path d="M40.1504 133.73C40.1809 136.385 41.0659 139.04 42.8055 141.177C42.9581 141.39 43.1412 141.634 43.3548 141.848C43.5685 142.062 43.7821 142.245 44.0262 142.397C48.5125 145.999 55.196 146.09 59.4381 141.848C61.5744 139.712 62.7036 136.721 62.7952 133.73C62.7036 130.709 61.5439 127.718 59.4381 125.612C55.196 121.37 48.5125 121.462 44.0262 125.063C43.8126 125.215 43.5685 125.399 43.3548 125.612C43.1412 125.826 42.9581 126.039 42.8055 126.284C41.0965 128.42 40.1809 131.075 40.1504 133.73ZM67.6171 67.3828C65.7555 69.2749 64.5347 71.7774 64.2295 74.5241C64.1685 74.7988 64.138 75.0735 64.1685 75.3786C64.1685 75.6838 64.199 75.9585 64.2295 76.2332C64.8399 81.9707 69.5398 86.7316 75.5214 86.7621C78.5122 86.7621 81.442 85.4498 83.6394 83.405C85.7146 81.2077 86.9964 78.2779 86.9964 75.2871C86.9964 69.3054 82.205 64.6056 76.4675 63.9952C76.1928 63.9342 75.9182 63.9037 75.613 63.9342C75.3078 63.9342 75.0331 63.9647 74.7585 63.9952C72.0423 64.3004 69.5093 65.5517 67.6171 67.3828ZM133.965 39.916C131.309 39.9466 128.654 40.8316 126.518 42.5712C126.304 42.7238 126.06 42.9069 125.847 43.1205C125.633 43.3341 125.45 43.5478 125.297 43.7919C121.696 48.2781 121.604 54.9617 125.847 59.2038C127.983 61.3401 130.974 62.4693 133.965 62.5608C136.986 62.4693 139.977 61.3096 142.082 59.2038C146.325 54.9617 146.233 48.2781 142.632 43.7919C142.479 43.5783 142.296 43.3341 142.082 43.1205C141.869 42.9069 141.655 42.7238 141.411 42.5712C139.244 40.8621 136.589 39.9466 133.965 39.916ZM200.281 67.3828C198.389 65.5211 195.887 64.3004 193.14 63.9952C192.865 63.9342 192.591 63.9037 192.286 63.9342C191.98 63.9342 191.706 63.9647 191.431 63.9952C185.694 64.6056 180.933 69.3054 180.902 75.2871C180.902 78.2779 182.214 81.2077 184.259 83.405C186.456 85.4803 189.386 86.7621 192.377 86.7621C198.359 86.7621 203.059 81.9707 203.669 76.2332C203.73 75.9585 203.761 75.6838 203.73 75.3786C203.73 75.0735 203.699 74.7988 203.669 74.5241C203.364 71.808 202.143 69.2749 200.281 67.3828ZM227.748 133.73C227.718 131.075 226.833 128.42 225.093 126.284C224.94 126.07 224.757 125.826 224.544 125.612C224.33 125.399 224.116 125.215 223.872 125.063C219.386 121.462 212.702 121.37 208.46 125.612C206.324 127.749 205.195 130.739 205.103 133.73C205.195 136.752 206.355 139.742 208.46 141.848C212.702 146.09 219.386 145.999 223.872 142.397C224.086 142.245 224.33 142.062 224.544 141.848C224.757 141.634 224.94 141.421 225.093 141.177C226.833 139.01 227.748 136.355 227.748 133.73ZM200.281 200.047C202.143 198.155 203.364 195.652 203.669 192.906C203.73 192.631 203.761 192.356 203.73 192.051C203.73 191.746 203.699 191.471 203.669 191.197C203.059 185.459 198.359 180.698 192.377 180.668C189.386 180.668 186.456 181.98 184.259 184.025C182.184 186.222 180.902 189.152 180.902 192.143C180.902 198.124 185.694 202.824 191.431 203.435C191.706 203.496 191.98 203.526 192.286 203.496C192.591 203.496 192.865 203.465 193.14 203.435C195.887 203.129 198.389 201.909 200.281 200.047ZM133.965 227.514C136.62 227.483 139.275 226.598 141.411 224.859C141.625 224.706 141.869 224.523 142.082 224.309C142.296 224.096 142.479 223.882 142.632 223.638C146.233 219.152 146.325 212.468 142.082 208.226C139.946 206.09 136.955 204.961 133.965 204.869C130.943 204.961 127.952 206.12 125.847 208.226C121.604 212.468 121.696 219.152 125.297 223.638C125.45 223.852 125.633 224.096 125.847 224.309C126.06 224.523 126.274 224.706 126.518 224.859C128.654 226.598 131.309 227.514 133.965 227.514ZM67.6171 200.047C69.5093 201.909 72.0118 203.129 74.7585 203.435C75.0331 203.496 75.3078 203.526 75.613 203.496C75.9182 203.496 76.1928 203.465 76.4675 203.435C82.205 202.824 86.9659 198.124 86.9964 192.143C86.9964 189.152 85.6841 186.222 83.6394 184.025C81.442 181.95 78.5122 180.668 75.5214 180.668C69.5398 180.668 64.8399 185.459 64.2295 191.197C64.1685 191.471 64.138 191.746 64.1685 192.051C64.1685 192.356 64.199 192.631 64.2295 192.906C64.5347 195.652 65.786 198.155 67.6171 200.047ZM56.0811 133.73C55.6233 137.026 51.5338 140.048 48.2378 136.996C47.2612 135.928 46.895 134.798 46.956 133.73C46.895 132.662 47.2612 131.533 48.2378 130.465C51.5338 127.413 55.6538 130.434 56.0811 133.73ZM78.909 78.6747C76.2539 80.6889 71.2183 79.9259 71.0657 75.4092C71.1267 73.9748 71.6761 72.9066 72.4696 72.2047C73.1715 71.4112 74.2396 70.8619 75.674 70.8008C80.1297 70.984 80.9232 76.0195 78.909 78.6747ZM133.965 55.8467C130.669 55.389 127.647 51.2995 130.699 48.0035C131.767 47.0269 132.896 46.6607 133.965 46.7217C135.033 46.6607 136.162 47.0269 137.23 48.0035C140.282 51.2995 137.261 55.4195 133.965 55.8467ZM189.02 78.6747C187.006 76.0195 187.769 70.984 192.286 70.8314C193.72 70.8924 194.788 71.4112 195.49 72.2352C196.283 72.9372 196.833 74.0053 196.894 75.4397C196.711 79.8954 191.645 80.6889 189.02 78.6747ZM211.817 133.73C212.275 130.434 216.365 127.413 219.661 130.465C220.637 131.533 221.004 132.662 220.942 133.73C221.004 134.798 220.637 135.928 219.661 136.996C216.395 140.048 212.275 137.026 211.817 133.73ZM189.02 188.786C191.675 186.771 196.711 187.534 196.863 192.051C196.802 193.486 196.283 194.554 195.459 195.256C194.758 196.049 193.689 196.598 192.255 196.659C187.769 196.476 187.006 191.41 189.02 188.786ZM133.965 211.583C137.261 212.041 140.282 216.13 137.23 219.426C136.162 220.403 135.033 220.769 133.965 220.708C132.896 220.769 131.767 220.403 130.699 219.426C127.647 216.161 130.669 212.041 133.965 211.583ZM78.909 188.786C80.9232 191.441 80.1602 196.476 75.6435 196.629C74.2091 196.598 73.141 196.049 72.439 195.256C71.6456 194.554 71.0962 193.486 71.0352 192.051C71.2183 187.534 76.2539 186.771 78.909 188.786Z" fill="url(#paint1_linear_1_377)" fill-opacity="0.3" />
  <defs>
    <linearGradient id="paint0_linear_1_377" x1="133.934" y1="0.730225" x2="133.934" y2="266.7" gradientUnits="userSpaceOnUse">
      <stop offset="0.0625" stop-color="white" />
      <stop offset="1" stop-color="white" stop-opacity="0" />
    </linearGradient>
    <linearGradient id="paint1_linear_1_377" x1="133.949" y1="39.916" x2="133.949" y2="227.514" gradientUnits="userSpaceOnUse">
      <stop offset="0.0625" stop-color="white" />
      <stop offset="1" stop-color="white" stop-opacity="0" />
    </linearGradient>
  </defs>
</svg>